# xmcd
#
# Track frame offsets:
#	150
#	14980
#	34351
#	52966
#	72015
#	95782
#	124331
#	146354
#	168786
#	193216
#	210011
#	226717
#	254154
#
# Disc length: 3711 seconds
#
# Revision: 1
# Processed by: cddbd v1.5.1PL2 Copyright (c) Steve Scherf et al.
# Submitted via: EasyCDDAExtractor 7.0.5.4
#
DISCID=ba0e7d0d
DTITLE=Various Artist - Jaakko Löytty - 30-vuotistaiteilijajuhlakonsertti
DYEAR=2003
DGENRE=Gospel
TTITLE0=Jouko Mäki-Lohiluoma and Teppo Nuorva - Edessäsi Uudistun
TTITLE1=Pekka Ruuska - Saamme Kasvaa
TTITLE2=Heikki Silvennoinen - Niin Tulvii Hawash
TTITLE3=Mikko Kuustonen and Heikki Silvennoinen - Valaiskoon
TTITLE4=Mikko Kuustonen - Surusta Tehty
TTITLE5=Jukka Leppilampi - Martin Luther Kingin Laulu
TTITLE6=Jukka Leppilampi - Orjalaiva
TTITLE7=Essi Wuorela - Toisen Päivän Iltana
TTITLE8=Essi Wuorela - Lennä, Leijani, Lennä
TTITLE9=Essi Wuorela, Säde Rissanen and Veera Railio - Tahdon Kiittää Herraa
TTITLE10=Pekka Kosonen and Mika Nuorva - Palmumatolla
TTITLE11=Mika Nuorva - Helsinki-Dakar
TTITLE12=Nicolas Sarr - Tu M'as Touché
EXTD=YEAR: 2003
EXTT0=
EXTT1=
EXTT2=
EXTT3=
EXTT4=
EXTT5=
EXTT6=
EXTT7=
EXTT8=
EXTT9=
EXTT10=
EXTT11=
EXTT12=
PLAYORDER=
